<?xml version="1.0" encoding="utf-8"?>
<!-- Generator: Adobe Illustrator 16.0.0, SVG Export Plug-In . SVG Version: 6.00 Build 0)  -->
<!DOCTYPE svg PUBLIC "-//W3C//DTD SVG 1.1//EN" "http://www.w3.org/Graphics/SVG/1.1/DTD/svg11.dtd">
<svg version="1.1" id="Layer_1" xmlns="http://www.w3.org/2000/svg" xmlns:xlink="http://www.w3.org/1999/xlink" x="0px" y="0px"
	 width="841.89px" height="595.28px" viewBox="0 0 841.89 595.28" enable-background="new 0 0 841.89 595.28" xml:space="preserve">
<g>
	<g>
		<polygon fill="#488570" points="282.439,361.323 282.607,302.47 334.15,273.027 333.336,331.422 384.1,361.275 333.258,390.828 		
			"/>
		<polygon fill="#488570" points="437.929,392.955 387.165,422.737 335.605,393.326 386.3,364.334 386.192,305.442 437.492,334.195 
					"/>
		<polygon fill="#488570" points="386.784,242.754 437.783,213.378 489.106,243.197 438.183,271.786 437.821,330.678 
			386.752,301.518 		"/>
		<polygon fill="#488570" points="542.768,210.584 543.249,269.438 492.037,299.447 492.202,241.047 441.111,211.758 
			491.622,181.645 		"/>
		<polyline fill="#3B6D5A" points="492.181,302.918 543.249,273.027 543.249,321.917 492.181,349.251 		"/>
		<polyline fill="#3B6D5A" points="333.336,331.422 282.439,361.323 282.607,302.47 334.15,273.027 		"/>
		<polyline fill="#3B6D5A" points="437.929,392.955 386.3,364.334 386.192,305.442 437.492,334.195 		"/>
		<polyline fill="#3B6D5A" points="438.183,271.786 386.784,242.754 386.752,301.518 437.821,330.678 		"/>
		<polyline fill="#3B6D5A" points="542.768,210.584 492.202,241.047 492.037,299.447 543.249,269.438 		"/>
	</g>
	<circle fill="none" stroke="#3B6D5A" stroke-miterlimit="10" cx="421.468" cy="297.443" r="163"/>
</g>
</svg>
